<svg xmlns="http://www.w3.org/2000/svg" viewBox="0 0 320 260" role="img" aria-labelledby="logoTitle">
  <title id="logoTitle">AIK</title>
  <g opacity="0.95">
    <path
      fill="#e8898a"
      fill-opacity="0.92"
      d="M52 118c0-18 10-28 26-22l58 28c12 6 12 22 0 28l-58 28c-16 6-26-4-26-22v-40z"
    />
    <path
      fill="#5eb8ec"
      fill-opacity="0.9"
      d="M98 52c0-20 14-30 32-18l88 52c20 12 20 36 0 48l-88 52c-18 12-32 2-32-18V52z"
    />
    <path
      fill="#6dd86a"
      fill-opacity="0.9"
      d="M98 138c0-20 14-30 32-18l88 52c20 12 20 36 0 48l-88 52c-18 12-32 2-32-18v-116z"
    />
  </g>
  <text
    x="160"
    y="78"
    text-anchor="middle"
    font-family="system-ui, -apple-system, 'Segoe UI', 'Helvetica Neue', Arial, sans-serif"
    font-size="64"
    font-weight="900"
    letter-spacing="-0.04em"
    fill="#0f172a"
  >AIK</text>
</svg>
